<svg width="267" height="248" xmlns="http://www.w3.org/2000/svg" xmlns:xlink="http://www.w3.org/1999/xlink" xml:space="preserve" overflow="hidden"><defs><clipPath id="clip0"><rect x="0" y="0" width="267" height="248"/></clipPath></defs><g clip-path="url(#clip0)"><path d="M265.558 0.641514C264.499-0.11825 263.102-0.210463 261.953 0.40393L1.81881 139.711C0.146586 140.604-0.487298 142.691 0.403381 144.37 0.810723 145.138 1.49323 145.723 2.3126 146.007L81.8394 173.642 83.2768 174.117 105.918 245.599C106.281 246.746 107.214 247.619 108.378 247.904 108.646 247.967 108.92 247.999 109.194 248 110.104 247.999 110.976 247.636 111.62 246.991L158.749 199.675 228.145 223.699C229.103 224.038 230.162 223.926 231.03 223.396 231.899 222.873 232.493 221.99 232.653 220.985L266.958 3.98614C267.161 2.69479 266.619 1.39911 265.558 0.641514ZM12.0416 142.039 238.57 20.7364C238.585 20.7248 238.607 20.7281 238.618 20.7433 238.629 20.7584 238.627 20.7801 238.611 20.7914L84.7827 167.325 12.0553 142.104C12.0359 142.097 12.0258 142.076 12.0326 142.056 12.0351 142.049 12.0398 142.043 12.0452 142.039ZM89.812 172.03 240.838 28.1659C240.851 28.1518 240.874 28.1507 240.888 28.1641 240.902 28.1778 240.903 28.1999 240.889 28.2143L122.844 182.442C122.582 182.778 122.389 183.163 122.279 183.575L108.924 232.142C108.924 232.161 108.908 232.176 108.889 232.176 108.87 232.176 108.855 232.161 108.855 232.142ZM115.812 232.945 127.898 188.994 151.531 197.174 115.853 232.979C115.835 232.982 115.816 232.971 115.813 232.952 115.812 232.95 115.812 232.947 115.812 232.945ZM226.478 215.836 131.188 182.845 257.826 17.3918C257.833 17.3755 257.851 17.3679 257.867 17.3744 257.883 17.3809 257.891 17.3997 257.884 17.416L226.519 215.808C226.515 215.827 226.497 215.839 226.479 215.836 226.479 215.836 226.478 215.836 226.478 215.836Z" fill="#707070" fill-rule="evenodd"/></g></svg>