<svg xmlns="http://www.w3.org/2000/svg" width="24" height="24" viewBox="-0.5 0 22 14.03" fill="currentColor" stroke="none"><path d="M11.09,4.23a.9.9,0,1,0-.93-.9.92.92,0,0,0,.93.9h0"></path><path d="M19.67,9.79c-.54-.16-.9,0-1.05.43A2.92,2.92,0,0,1,16,12.43c-.91,0-1.27-.56-.93-1.78l1.05-3.8h3.3a.86.86,0,0,0,.9-.83c.07-.5-.3-.76-.78-.76h-3L16.88,4a.78.78,0,0,0-.42-1L16.3,3a.79.79,0,0,0-1,.44l0,.07-.66,2.38s0,0,0,.08l-1.19,4.27c-.46,1.66-1.39,2.21-2.16,2.21-1.34,0-1.58-.57-1.24-1.78L11.14,6.4a.78.78,0,0,0-.42-1l-.16,0a.79.79,0,0,0-1,.44l0,.07L8.27,10.22c-.67,2.41.25,3.8,2.92,3.8a3.55,3.55,0,0,0,2.46-.93A2.76,2.76,0,0,0,16,14,4.37,4.37,0,0,0,20,10.9c.18-.43.15-1-.37-1.11"></path><path d="M6.56,12.35H2L5.14,1.11a.78.78,0,0,0-.42-1l-.16,0a.79.79,0,0,0-1,.44l0,.07L.06,12.89a.76.76,0,0,0,.4,1,.76.76,0,0,0,.42.06H6.45a.88.88,0,0,0,.9-.84c.06-.49-.3-.75-.79-.75"></path></svg>